<svg width="32" height="32" viewBox="0 0 32 32" fill="none" xmlns="http://www.w3.org/2000/svg">
<path d="M6.94474 6.04976C6.65713 6.04976 6.51333 6.18647 6.51333 6.45987V7.5087C6.51333 7.79904 6.66604 7.94663 6.97147 7.95147L10.2624 7.97687C10.8885 7.98413 11.2117 8.2914 11.2321 8.89869C11.2321 8.90353 11.2321 8.93619 11.2321 8.99668C11.2423 9.60638 10.9114 9.91244 10.2395 9.91486L5.0893 9.93664C4.92122 9.93664 4.76002 9.87355 4.64117 9.76125C4.52232 9.64895 4.45555 9.49663 4.45555 9.33782V4.87753C4.45555 4.66097 4.54645 4.45327 4.70826 4.30013C4.87007 4.147 5.08954 4.06097 5.31837 4.06097H14.0382C14.6236 4.06097 15.0257 3.80208 15.2446 3.28432C15.2828 3.19238 15.3006 3.14157 15.298 3.13189C15.1504 2.41815 14.7775 2.06007 14.1794 2.05765C11.2652 2.05039 8.36495 2.04555 5.47871 2.04313C4.29775 2.04071 3.38785 2.4375 2.74901 3.23351C2.35196 3.7295 2.16234 4.47953 2.18016 5.48361C2.1827 5.6941 2.18907 7.18813 2.19925 9.96567C2.20179 10.6044 1.86837 10.9456 1.19898 10.9891C1.11754 10.9939 1.01192 10.9843 0.882114 10.9601C0.337445 10.8512 0.0625636 10.5318 0.0574733 10.002C0.0371118 8.13413 0.0320182 6.65463 0.0421989 5.56345C0.0625604 3.18754 1.05264 1.54351 3.01243 0.631374C3.85743 0.239421 5.14784 0.0349753 6.88365 0.018039C10.1033 -0.013414 12.4487 -0.00373549 13.9198 0.0470733C15.55 0.101511 17.184 1.13946 17.3138 2.80526C17.4131 4.09242 16.8506 5.04206 15.6264 5.65418C15.0893 5.92274 14.0891 6.0534 12.6256 6.04614C11.1138 6.03888 9.22013 6.04009 6.94474 6.04976Z" fill="black"/>
<path d="M15.8172 17.9353C15.8436 17.96 15.8748 17.9794 15.9091 17.9925C15.9433 18.0055 15.9799 18.0119 16.0166 18.0112C16.0533 18.0105 16.0894 18.0028 16.1227 17.9885C16.156 17.9742 16.1859 17.9537 16.2104 17.9281C17.4169 16.7063 18.6996 15.4796 20.0588 14.2481C21.031 13.3674 22.17 12.794 23.4757 12.5278C27.1866 11.7693 30.5615 13.544 31.6801 17.0571C32.0924 18.3527 32.0008 21.0492 31.9359 21.9964C31.9191 22.2389 31.8155 22.4762 31.6378 22.6793C31.4601 22.8824 31.2161 23.0424 30.9356 23.1396C30.9203 23.1444 30.9063 23.1469 30.8936 23.1469C30.1708 23.1203 29.8055 22.8094 29.7979 22.2142C29.7712 20.0911 30.0422 18.0442 29.3016 16.6724C28.902 15.932 28.2937 15.3356 27.4767 14.8832C25.0868 13.5585 22.6548 14.4803 20.8681 16.2006C20.5042 16.549 18.9847 18.0285 16.3097 20.6391C16.2656 20.6816 16.2132 20.7154 16.1553 20.7386C16.0975 20.7617 16.0354 20.7739 15.9726 20.7742C15.9098 20.7745 15.8476 20.7631 15.7895 20.7405C15.7314 20.718 15.6785 20.6847 15.634 20.6427C13.4146 18.562 11.8518 17.0668 10.9457 16.157C9.73549 14.9413 7.74261 13.9287 5.91008 14.3751C4.37788 14.7477 3.29108 15.4808 2.64969 16.5744C2.31119 17.1526 2.14448 18.1882 2.14957 19.681C2.16993 25.9111 2.18011 29.0334 2.18011 29.048C2.1852 29.6044 2.56698 29.9589 3.32544 30.1113C3.38907 30.1258 3.62068 29.9976 4.02028 29.7266C4.11839 29.6603 4.1986 29.5731 4.25434 29.4722C4.31008 29.3712 4.33977 29.2595 4.34097 29.1459C4.37152 25.974 4.37279 22.438 4.34479 18.5378C4.34097 17.9789 4.54713 17.3619 5.02435 16.9482C6.35803 15.7917 7.71588 15.8703 9.09792 17.1841C11.6889 19.6399 13.8841 21.7387 15.6836 23.4808C15.7258 23.5219 15.7762 23.5546 15.8318 23.577C15.8875 23.5994 15.9471 23.6109 16.0074 23.6109C16.0676 23.6109 16.127 23.5994 16.1823 23.577C16.2375 23.5546 16.2873 23.5219 16.3288 23.4808C19.3321 20.5097 21.591 18.3091 23.1053 16.8792C24.3118 15.736 26.5833 15.9719 27.3278 17.5071C27.4856 17.8337 27.5645 18.4217 27.5645 19.2709C27.5645 24.2719 27.5709 27.5249 27.5836 29.0298C27.5887 29.6056 27.9386 29.9649 28.6335 30.1077C28.6437 30.1101 28.6564 30.1101 28.6717 30.1077C29.3309 30.0036 29.6719 29.6964 29.6948 29.1859L29.8208 26.5184C29.8463 26.0031 30.13 25.7454 30.6722 25.7454H30.97C31.5299 25.7454 31.8442 26.0103 31.9129 26.5402C32.2222 28.8774 31.8328 31.9078 28.6717 31.9912C27.4754 32.0227 26.5642 31.5642 25.9381 30.6158C25.5971 30.1004 25.4253 29.2415 25.4227 28.039C25.4202 27.2237 25.4393 24.082 25.48 18.614C25.48 18.5014 25.4366 18.3926 25.358 18.3078C25.2793 18.223 25.1707 18.168 25.0524 18.1531C24.8361 18.1265 24.6146 18.2281 24.3881 18.4579C21.8607 21.0202 19.2608 23.5146 16.5884 25.9414C16.143 26.3454 15.7027 26.3406 15.2674 25.9268L7.26539 18.32C7.20547 18.2631 7.12987 18.224 7.04777 18.2075C6.64055 18.1301 6.43948 18.3067 6.44457 18.7374C6.47256 21.3044 6.47893 24.6179 6.46366 28.6778C6.45602 31.044 4.38297 32.6481 1.98158 31.7444C1.25112 31.4686 0.715358 30.9871 0.374303 30.3C0.147782 29.8476 0.0319748 29.1883 0.0268844 28.3221C-0.00620297 22.7888 -0.00874978 19.4971 0.0192472 18.4471C0.0599702 16.9373 0.692449 15.5618 1.91668 14.3207C4.57385 11.6314 9.04066 11.8601 11.8162 14.2662C12.5619 14.9146 13.8956 16.1377 15.8172 17.9353Z" fill="black"/>
</svg>
