<svg width="481" height="342" viewBox="0 0 481 342" fill="none" xmlns="http://www.w3.org/2000/svg">
<rect x="397" y="210" width="84" height="73" rx="9" fill="#FF7A1A"/>
<path d="M451.447 262.627V230.253C451.447 229.836 451.106 229.494 450.688 229.494H426.312C425.895 229.494 425.553 229.836 425.553 230.253V262.627C425.553 263.175 425.997 263.619 426.545 263.619H450.455C451.003 263.619 451.447 263.175 451.447 262.627Z" fill="white"/>
<path d="M451.447 232.366V230.253C451.447 229.836 451.106 229.494 450.688 229.494H426.312C425.895 229.494 425.553 229.836 425.553 230.253V232.366L451.447 232.366Z" fill="#FF7A1A"/>
<path d="M428.79 229.494H426.312C425.895 229.494 425.553 229.836 425.553 230.253V232.366H428.79V229.494Z" fill="#FF7A1A"/>
<path d="M433.326 251.359L429.833 247.866C429.667 247.701 429.574 247.476 429.574 247.242C429.574 247.008 429.667 246.783 429.833 246.618L433.326 243.125C433.67 242.781 434.229 242.781 434.574 243.125C434.919 243.47 434.919 244.029 434.574 244.374L431.705 247.242L434.574 250.111C434.919 250.456 434.919 251.015 434.574 251.359C434.229 251.704 433.67 251.704 433.326 251.359Z" fill="#FF7A1A"/>
<path d="M442.426 251.359C442.081 251.015 442.081 250.456 442.426 250.111L445.295 247.242L442.426 244.374C442.081 244.029 442.081 243.47 442.426 243.125C442.771 242.781 443.33 242.781 443.674 243.125L447.167 246.618C447.333 246.783 447.426 247.008 447.426 247.242C447.426 247.476 447.333 247.701 447.167 247.866L443.674 251.359C443.33 251.704 442.771 251.704 442.426 251.359Z" fill="#FF7A1A"/>
<path d="M436.578 253.095C436.115 252.943 435.862 252.444 436.014 251.981L439.308 241.952C439.46 241.489 439.958 241.237 440.422 241.389C440.885 241.541 441.137 242.04 440.985 242.503L437.692 252.532C437.54 252.995 437.041 253.247 436.578 253.095Z" fill="#FF7A1A"/>
<path d="M424.029 255.804C423.557 255.712 423.176 255.347 423.085 254.875C423.085 254.859 423.039 254.859 423.039 254.875C422.948 255.347 422.567 255.712 422.094 255.804C422.079 255.804 422.079 255.834 422.094 255.85C422.567 255.941 422.948 256.307 423.039 256.779C423.039 256.794 423.085 256.794 423.085 256.779C423.176 256.307 423.557 255.941 424.029 255.85C424.044 255.834 424.044 255.804 424.029 255.804Z" fill="#70D6F9"/>
<path d="M421.287 230.256H421.637V230.606C421.637 230.88 421.851 231.094 422.125 231.094C422.384 231.094 422.612 230.88 422.612 230.622V230.606V230.256H422.963C423.237 230.256 423.45 230.043 423.45 229.768C423.45 229.509 423.237 229.281 422.978 229.281H422.963H422.612V228.93C422.612 228.656 422.399 228.443 422.125 228.443C421.866 228.443 421.637 228.656 421.637 228.915V228.93V229.281H421.287C421.013 229.281 420.8 229.494 420.8 229.768C420.784 230.027 420.998 230.256 421.287 230.256C421.272 230.256 421.272 230.256 421.287 230.256Z" fill="white"/>
<path d="M454.102 255.21C454.388 255.21 454.62 254.978 454.62 254.692C454.62 254.406 454.388 254.174 454.102 254.174C453.816 254.174 453.584 254.406 453.584 254.692C453.584 254.978 453.816 255.21 454.102 255.21Z" fill="white"/>
<path d="M430.489 226.036C430.775 226.036 431.007 225.804 431.007 225.518C431.007 225.232 430.775 225 430.489 225C430.203 225 429.971 225.232 429.971 225.518C429.971 225.804 430.203 226.036 430.489 226.036Z" fill="white"/>
<path d="M453.554 248.644C454.239 248.522 454.772 247.989 454.909 247.318C454.909 247.288 454.97 247.288 454.97 247.318C455.108 247.989 455.641 248.522 456.326 248.644C456.357 248.644 456.357 248.689 456.326 248.705C455.641 248.827 455.108 249.36 454.97 250.03C454.97 250.061 454.909 250.061 454.909 250.03C454.772 249.36 454.239 248.827 453.554 248.705C453.523 248.689 453.523 248.644 453.554 248.644Z" fill="white"/>
<path d="M449.615 231.268H447.823C447.612 231.268 447.442 231.097 447.442 230.887C447.442 230.676 447.612 230.506 447.823 230.506H449.615C449.825 230.506 449.996 230.676 449.996 230.887C449.996 231.097 449.825 231.268 449.615 231.268Z" fill="black"/>
<path d="M446.137 231.268H430.496C430.285 231.268 430.115 231.097 430.115 230.887C430.115 230.676 430.285 230.506 430.496 230.506H446.137C446.347 230.506 446.518 230.676 446.518 230.887C446.518 231.097 446.347 231.268 446.137 231.268Z" fill="black"/>
<path d="M451.297 232.747H425.68C425.469 232.747 425.299 232.577 425.299 232.366C425.299 232.156 425.469 231.986 425.68 231.986H451.297C451.507 231.986 451.678 232.156 451.678 232.366C451.678 232.577 451.507 232.747 451.297 232.747Z" fill="black"/>
<path d="M428.79 232.624C428.58 232.624 428.409 232.454 428.409 232.243V229.637C428.409 229.427 428.58 229.257 428.79 229.257C429 229.257 429.171 229.427 429.171 229.637V232.243C429.171 232.454 429 232.624 428.79 232.624Z" fill="black"/>
<path d="M450.455 264H426.545C425.788 264 425.172 263.384 425.172 262.627V230.253C425.172 229.625 425.684 229.113 426.312 229.113H450.688C451.317 229.113 451.828 229.625 451.828 230.253V262.627C451.828 263.384 451.212 264 450.455 264ZM426.312 229.875C426.104 229.875 425.934 230.045 425.934 230.253V262.627C425.934 262.964 426.208 263.238 426.545 263.238H450.455C450.792 263.238 451.066 262.964 451.066 262.627V230.253C451.066 230.045 450.897 229.875 450.688 229.875H426.312Z" fill="black"/>
<path d="M433.95 251.998C433.626 251.998 433.303 251.875 433.056 251.629L429.563 248.136C429.325 247.897 429.193 247.58 429.193 247.242C429.193 246.905 429.325 246.587 429.563 246.349L433.056 242.856C433.295 242.617 433.612 242.486 433.95 242.486C434.287 242.486 434.605 242.617 434.843 242.856C435.082 243.094 435.213 243.412 435.213 243.749C435.213 244.087 435.082 244.404 434.843 244.643L432.244 247.242L434.843 249.842C435.082 250.08 435.214 250.398 435.214 250.735C435.214 251.073 435.082 251.39 434.843 251.629C434.597 251.875 434.273 251.998 433.95 251.998ZM433.595 251.09C433.791 251.286 434.109 251.286 434.305 251.09C434.5 250.894 434.5 250.576 434.305 250.38L431.436 247.511C431.287 247.363 431.287 247.122 431.436 246.973L434.305 244.104C434.399 244.009 434.452 243.883 434.452 243.749C434.452 243.615 434.399 243.489 434.305 243.394C434.115 243.205 433.784 243.205 433.595 243.394L430.102 246.887C430.009 246.981 429.955 247.11 429.955 247.242C429.955 247.376 430.007 247.502 430.102 247.597L433.595 251.09Z" fill="black"/>
<path d="M443.05 251.999C442.712 251.999 442.395 251.867 442.156 251.629C441.918 251.39 441.786 251.073 441.786 250.735C441.786 250.398 441.918 250.08 442.156 249.841L444.756 247.242L442.156 244.643C441.918 244.404 441.786 244.087 441.786 243.749C441.786 243.412 441.917 243.094 442.156 242.856C442.395 242.617 442.712 242.486 443.05 242.486C443.387 242.486 443.705 242.617 443.943 242.856L447.436 246.349C447.675 246.587 447.806 246.905 447.806 247.242C447.806 247.58 447.675 247.897 447.436 248.136L443.943 251.629C443.705 251.867 443.387 251.999 443.05 251.999ZM443.05 243.247C442.916 243.247 442.79 243.3 442.695 243.394C442.6 243.489 442.548 243.615 442.548 243.749C442.548 243.883 442.6 244.009 442.695 244.104L445.564 246.973C445.712 247.122 445.712 247.363 445.564 247.512L442.695 250.38C442.6 250.475 442.548 250.601 442.548 250.735C442.548 250.869 442.6 250.995 442.695 251.09C442.885 251.279 443.215 251.279 443.404 251.09L446.898 247.597C446.992 247.502 447.045 247.376 447.045 247.242C447.045 247.108 446.992 246.982 446.898 246.887L443.405 243.394C443.31 243.3 443.184 243.247 443.05 243.247Z" fill="black"/>
<path d="M436.855 253.521C436.722 253.521 436.589 253.5 436.459 253.457C436.139 253.352 435.878 253.128 435.726 252.827C435.574 252.526 435.548 252.183 435.653 251.863L438.946 241.833C439.051 241.513 439.275 241.252 439.576 241.1C439.878 240.948 440.22 240.922 440.541 241.027C440.862 241.133 441.122 241.356 441.274 241.658C441.427 241.959 441.452 242.301 441.347 242.622L438.054 252.651C437.949 252.972 437.725 253.232 437.424 253.384C437.244 253.475 437.05 253.521 436.855 253.521ZM440.146 241.725C440.068 241.725 439.991 241.744 439.92 241.78C439.801 241.84 439.712 241.944 439.67 242.071L436.377 252.1C436.335 252.228 436.345 252.364 436.406 252.483C436.466 252.603 436.57 252.692 436.697 252.734C436.824 252.775 436.96 252.765 437.08 252.705C437.2 252.644 437.289 252.541 437.33 252.413L440.624 242.384C440.665 242.257 440.655 242.121 440.595 242.001C440.534 241.882 440.431 241.793 440.303 241.751C440.252 241.734 440.199 241.725 440.146 241.725Z" fill="black"/>
<rect x="57" y="56" width="84" height="73" rx="9" fill="#FF7A1A"/>
<path d="M87.435 74.1337C87.6642 74.2439 87.8576 74.4165 87.9929 74.6317C88.1282 74.847 88.2 75.096 88.2 75.3502C88.2 76.8438 88.7616 77.704 89.4654 78.7513L89.5176 78.8269C90.1152 79.7159 90.9 80.8801 90.9 82.5483C90.9 84.2507 90.0414 85.7515 88.7328 86.6422C89.0772 86.9301 89.3808 87.2858 89.6436 87.7093C90.5004 89.095 90.9 91.213 90.9 94.2542C90.9 97.335 90.486 101.035 89.811 103.99C89.4762 105.458 89.0604 106.813 88.5654 107.83C88.3328 108.336 88.0231 108.804 87.6474 109.215C87.2766 109.595 86.706 110 85.95 110C85.194 110 84.6234 109.595 84.2544 109.215C83.8787 108.804 83.569 108.336 83.3364 107.83C82.8396 106.811 82.4238 105.458 82.089 103.988C81.3863 100.79 81.0212 97.5267 81 94.2524C81 91.2112 81.3996 89.095 82.2564 87.7093C82.4998 87.3064 82.8075 86.9459 83.1672 86.6422C82.4993 86.1883 81.9527 85.578 81.5749 84.8644C81.1972 84.1508 80.9998 83.3557 81 82.5483C81 81.8861 81 80.747 81.6894 79.2768C82.3644 77.8372 83.6478 76.1834 86.0058 74.2957C86.2045 74.1368 86.4442 74.0372 86.697 74.0086C86.9499 73.9799 87.2057 74.0233 87.435 74.1337ZM95.4 97.245C94.4466 97.0842 93.5191 96.7961 92.6424 96.3884C92.6808 95.6554 92.7 94.944 92.7 94.2542C92.7 93.5236 92.6772 92.8254 92.6316 92.1595C93.429 92.8164 94.3704 93.304 95.4 93.5686V89.2965C95.4 88.5806 95.6845 87.894 96.1908 87.3878C96.6972 86.8816 97.3839 86.5972 98.1 86.5972H104.4C104.4 85.2242 104.008 83.8797 103.268 82.7225C102.529 81.5653 101.474 80.6435 100.228 80.066C98.9825 79.4884 97.5972 79.2792 96.2362 79.463C94.8751 79.6468 93.5951 80.216 92.547 81.1033C92.2356 79.6385 91.512 78.566 91.0494 77.8803L90.9774 77.7724C92.5946 76.6326 94.494 75.959 96.4681 75.8249C98.4422 75.6909 100.415 76.1015 102.172 77.0122C103.928 77.9228 105.401 79.2983 106.429 80.9887C107.456 82.679 108 84.6191 108 86.5972H114.3C115.016 86.5972 115.703 86.8816 116.209 87.3878C116.716 87.894 117 88.5806 117 89.2965V105.492C117 106.208 116.716 106.895 116.209 107.401C115.703 107.907 115.016 108.191 114.3 108.191H98.1C97.3839 108.191 96.6972 107.907 96.1908 107.401C95.6845 106.895 95.4 106.208 95.4 105.492V97.245ZM99 97.245V104.592H113.4V90.1963H107.386C106.742 92.0114 105.626 93.6217 104.151 94.8609C102.676 96.1001 100.897 96.9231 98.9982 97.245M103.437 90.1963H99V93.5686C99.9266 93.3295 100.796 92.9081 101.558 92.3291C102.32 91.75 102.959 91.025 103.437 90.1963Z" fill="white"/>
<rect x="346.5" y="0.5" width="98" height="84" rx="8.5" stroke="#FF7A1A"/>
<path d="M386.563 13.5H405.856C408.084 13.5 410.482 14.1124 412.259 15.501C414.083 16.9264 415.475 18.7378 416.069 20.9277C416.675 23.159 416.672 25.3709 415.872 27.5801C415.068 29.8005 413.67 31.6012 411.68 32.8008L411.007 33.2061L411.66 33.6436C413.468 34.8547 415.05 36.6533 415.645 39.2402L415.651 39.2705L415.662 39.2988C416.462 41.5081 416.465 43.7198 415.859 45.9512C415.267 48.1346 413.881 49.9408 412.065 51.3643C410.25 52.5769 408.044 53.3789 405.646 53.3789H405.437C402.837 53.3788 400.23 52.3727 398.223 50.5576L397.388 49.8027V61.043C397.388 63.8385 396.198 66.4474 394.192 68.4697C391.958 70.2991 389.141 71.5 386.354 71.5C384.126 71.5 381.727 70.8878 379.95 69.499L379.94 69.4912L379.931 69.4844L379.559 69.2129C377.74 67.8361 376.487 66.1213 375.931 64.0723C375.325 61.841 375.328 59.6291 376.128 57.4199C376.932 55.1995 378.33 53.3988 380.32 52.1992L381.016 51.7803L380.328 51.3477C378.712 50.3327 377.525 49.1325 376.735 47.5449C375.929 45.9248 375.529 44.3152 375.529 42.5C375.529 40.6848 375.929 39.0752 376.735 37.4551C377.518 35.8827 378.901 34.6769 380.354 33.6348L380.97 33.1924L380.32 32.8008C378.33 31.6012 376.932 29.8005 376.128 27.5801L376.126 27.5723L376.123 27.5654L375.983 27.1885C375.336 25.288 375.361 23.0463 375.923 20.9561C376.74 18.9106 377.946 16.92 380.122 15.5283L380.131 15.5225C381.948 14.3049 384.16 13.5 386.563 13.5ZM386.354 52.7461C385.522 52.7461 384.381 52.7421 383.231 53.2041L383.212 53.2119L383.193 53.2207C382.306 53.6663 381.429 54.3289 380.6 54.9541L380.543 54.9971L380.5 55.0547C379.878 55.8883 379.219 56.7684 378.775 57.6592C378.315 58.5854 378.094 59.7187 378.094 60.832C378.094 61.9327 378.311 63.0524 378.761 63.9727C379.181 65.0279 379.638 65.9737 380.575 66.6904C381.188 67.2952 381.959 67.7122 382.841 68.0879L383.231 68.25C384.19 68.716 385.351 68.707 386.354 68.707C388.556 68.707 390.581 68.0401 392.16 66.4531L392.159 66.4521C393.728 65.0855 394.612 63.0591 394.612 60.832V52.7461H386.354ZM386.563 34.625C384.361 34.625 382.336 35.2927 380.756 36.8799C379.206 38.4369 378.304 40.456 378.304 42.5C378.304 44.544 379.206 46.5631 380.756 48.1201L380.77 48.1338L380.784 48.1465C382.328 49.4761 384.328 50.375 386.563 50.375H394.822V34.625H386.563ZM405.382 34.6279C403.447 34.844 401.424 35.4985 400.049 37.0908C398.702 38.4447 397.807 40.466 397.807 42.5C397.807 44.553 398.717 46.3498 400.023 47.8818C401.378 49.4702 403.406 50.3749 405.437 50.375H408.701L408.807 50.3223C409.694 49.8766 410.571 49.2141 411.4 48.5889L411.457 48.5459L411.5 48.4883C412.122 47.6546 412.781 46.7746 413.225 45.8838C413.685 44.9576 413.906 43.8242 413.906 42.7109C413.906 41.6067 413.688 40.4835 413.234 39.5615C412.82 38.5218 412.369 37.5886 411.456 36.877C410.744 35.955 409.81 35.5005 408.769 35.082C407.81 34.6161 406.649 34.625 405.646 34.625H405.409L405.382 34.6279ZM397.388 32.2539H405.646C406.478 32.2539 407.62 32.258 408.77 31.7959L408.788 31.7881L408.807 31.7793C409.694 31.3337 410.571 30.6711 411.4 30.0459L411.457 30.0029L411.5 29.9453C412.122 29.1117 412.781 28.2316 413.225 27.3408C413.685 26.4146 413.906 25.2813 413.906 24.168C413.906 23.0334 413.676 22.1264 413.241 21.0332C412.825 19.9872 412.373 19.0481 411.455 18.333C410.746 17.4155 409.817 16.9619 408.781 16.5449C407.821 16.0727 406.654 16.082 405.646 16.082H397.388V32.2539ZM386.298 16.085C384.313 16.3066 382.315 17.1917 380.966 18.5469C379.618 19.9007 378.724 21.9227 378.724 23.957C378.724 25.9419 379.379 27.9801 380.963 29.3643C382.318 30.9366 384.334 31.832 386.354 31.832H394.612V16.082H386.325L386.298 16.085Z" fill="white" stroke="#FF7A1A"/>
<rect x="0.5" y="257.5" width="98" height="84" rx="8.5" stroke="#FF7A1A"/>
<path d="M70.7 294.4C70.677 286.154 70.4378 281.814 67.5007 279.031C64.2991 276 59.1517 276 48.85 276C38.5506 276 33.3986 276 30.1993 279.031C27 282.063 27 286.943 27 296.7C27 306.457 27 311.337 30.1993 314.369C33.0214 317.041 37.3569 317.359 45.4 317.395M56.9 311.65C56.9 311.65 58.05 311.65 59.2 313.95C59.2 313.95 62.8524 308.2 66.1 307.05" stroke="white" stroke-width="3" stroke-linecap="round" stroke-linejoin="round"/>
<path d="M27 290.951H70.7M37.35 284.051H37.3707M46.55 284.051H46.5707M73 310.501C73 313.551 71.7884 316.476 69.6317 318.633C67.4751 320.789 64.55 322.001 61.5 322.001C58.45 322.001 55.5249 320.789 53.3683 318.633C51.2116 316.476 50 313.551 50 310.501C50 307.451 51.2116 304.526 53.3683 302.369C55.5249 300.213 58.45 299.001 61.5 299.001C64.55 299.001 67.4751 300.213 69.6317 302.369C71.7884 304.526 73 307.451 73 310.501Z" stroke="white" stroke-width="3" stroke-linecap="round" stroke-linejoin="round"/>
</svg>
