<svg width="285" height="244" viewBox="0 0 285 244" fill="none" xmlns="http://www.w3.org/2000/svg">
<path d="M113.141 50.4755C112.668 50.4755 112.432 50.7121 112.432 51.1852V53.0001C112.432 53.5025 112.683 53.7579 113.185 53.7663L118.599 53.8102C119.629 53.8228 120.16 54.3545 120.194 55.4053C120.194 55.4137 120.194 55.4702 120.194 55.5749C120.211 56.6299 119.666 57.1595 118.561 57.1637L110.089 57.2014C109.813 57.2014 109.548 57.0922 109.352 56.8979C109.157 56.7036 109.047 56.44 109.047 56.1652V48.4471C109.047 48.0723 109.196 47.7129 109.463 47.448C109.729 47.183 110.09 47.0341 110.466 47.0341H124.81C125.773 47.0341 126.434 46.5861 126.794 45.6902C126.857 45.5311 126.886 45.4432 126.882 45.4264C126.639 44.1913 126.026 43.5717 125.042 43.5675C120.248 43.555 115.478 43.5466 110.73 43.5424C108.787 43.5382 107.291 44.2248 106.24 45.6023C105.587 46.4605 105.275 47.7584 105.304 49.4959C105.308 49.8601 105.319 52.4454 105.335 57.2517C105.34 58.3569 104.791 58.9472 103.69 59.0226C103.556 59.031 103.382 59.0142 103.169 58.9724C102.273 58.784 101.821 58.2313 101.812 57.3144C101.779 54.0823 101.77 51.5222 101.787 49.634C101.821 45.5227 103.449 42.6779 106.673 41.0995C108.063 40.4213 110.186 40.0675 113.041 40.0382C118.337 39.9837 122.195 40.0005 124.615 40.0884C127.297 40.1826 129.984 41.9787 130.198 44.8612C130.361 47.0885 129.436 48.7318 127.422 49.791C126.539 50.2557 124.893 50.4818 122.486 50.4693C119.999 50.4567 116.884 50.4588 113.141 50.4755Z" fill="white"/>
<path d="M127.736 71.0425C127.78 71.0852 127.831 71.1188 127.887 71.1413C127.944 71.1639 128.004 71.1749 128.064 71.1737C128.125 71.1726 128.184 71.1592 128.239 71.1345C128.294 71.1098 128.343 71.0742 128.383 71.0299C130.368 68.9157 132.478 66.793 134.713 64.662C136.313 63.138 138.186 62.1458 140.334 61.6853C146.438 60.3728 151.99 63.4437 153.83 69.5227C154.508 71.7647 154.357 76.4307 154.25 78.0698C154.223 78.4894 154.053 78.9001 153.76 79.2515C153.468 79.6029 153.066 79.8797 152.605 80.048C152.58 80.0564 152.557 80.0606 152.536 80.0606C151.347 80.0145 150.746 79.4765 150.734 78.4466C150.69 74.7728 151.136 71.2309 149.917 68.857C149.26 67.5759 148.259 66.5439 146.915 65.761C142.984 63.4688 138.984 65.0639 136.045 68.0406C135.446 68.6435 132.947 71.2037 128.546 75.7211C128.474 75.7946 128.388 75.8531 128.292 75.8932C128.197 75.9333 128.095 75.9543 127.992 75.9548C127.889 75.9554 127.786 75.9356 127.691 75.8966C127.595 75.8576 127.508 75.8001 127.435 75.7274C123.784 72.1268 121.213 69.5395 119.723 67.9653C117.732 65.8615 114.454 64.1094 111.44 64.8818C108.919 65.5265 107.132 66.7951 106.077 68.6875C105.52 69.6881 105.246 71.48 105.254 74.0632C105.287 84.8438 105.304 90.2467 105.304 90.2718C105.313 91.2348 105.941 91.8481 107.188 92.1119C107.293 92.137 107.674 91.9151 108.331 91.4462C108.493 91.3314 108.624 91.1806 108.716 91.0059C108.808 90.8313 108.857 90.6378 108.859 90.4414C108.909 84.9527 108.911 78.8339 108.865 72.085C108.859 71.1178 109.198 70.0502 109.983 69.3343C112.177 67.3331 114.41 67.4692 116.684 69.7425C120.946 73.992 124.557 77.6239 127.517 80.6383C127.586 80.7095 127.669 80.7662 127.76 80.8049C127.852 80.8435 127.95 80.8635 128.049 80.8635C128.148 80.8635 128.246 80.8435 128.337 80.8049C128.428 80.7662 128.51 80.7095 128.578 80.6383C133.518 75.4971 137.234 71.6893 139.725 69.215C141.709 67.2368 145.446 67.645 146.671 70.3014C146.93 70.8666 147.06 71.884 147.06 73.3535C147.06 82.0074 147.07 87.6363 147.091 90.2404C147.1 91.2369 147.675 91.8586 148.818 92.1056C148.835 92.1098 148.856 92.1098 148.881 92.1056C149.965 91.9256 150.526 91.3939 150.564 90.5105L150.771 85.8947C150.813 85.0029 151.28 84.557 152.172 84.557H152.662C153.583 84.557 154.1 85.0155 154.213 85.9324C154.721 89.9767 154.081 95.2205 148.881 95.3649C146.913 95.4193 145.415 94.626 144.385 92.9848C143.824 92.093 143.541 90.6068 143.537 88.526C143.533 87.1151 143.564 81.6787 143.631 72.2168C143.631 72.022 143.56 71.8337 143.43 71.687C143.301 71.5403 143.122 71.4452 142.928 71.4193C142.572 71.3732 142.208 71.5491 141.835 71.9468C137.678 76.3805 133.401 80.6969 129.005 84.8962C128.272 85.5953 127.548 85.587 126.832 84.871L113.669 71.7082C113.571 71.6096 113.446 71.542 113.311 71.5135C112.641 71.3795 112.311 71.6851 112.319 72.4304C112.365 76.8724 112.375 82.6061 112.35 89.6313C112.338 93.7258 108.928 96.5016 104.978 94.9379C103.776 94.4606 102.895 93.6275 102.334 92.4384C101.961 91.6555 101.771 90.5147 101.762 89.0158C101.708 79.4409 101.704 73.745 101.75 71.928C101.817 69.3155 102.857 66.9354 104.871 64.7876C109.242 60.1341 116.589 60.5298 121.155 64.6934C122.382 65.8154 124.575 67.9318 127.736 71.0425Z" fill="white"/>
</svg>
